<?xml version="1.0" standalone="no"?>
<!DOCTYPE svg PUBLIC "-//W3C//DTD SVG 1.1//EN" "http://www.w3.org/Graphics/SVG/1.1/DTD/svg11.dtd" >
<svg xmlns="http://www.w3.org/2000/svg">
<metadata></metadata>
<defs>
<font id="sansaconuniboldregular" horiz-adv-x="1087" >
<font-face units-per-em="2048" ascent="1638" descent="-410" />
<missing-glyph horiz-adv-x="385" />
<glyph horiz-adv-x="2048" />
<glyph horiz-adv-x="2048" />
<glyph unicode="&#xd;" horiz-adv-x="2048" />
<glyph unicode=" " horiz-adv-x="385" d="M0 0v2v-2z" />
<glyph unicode="!" horiz-adv-x="600" d="M129 0v2v-2v352h342v-352h-342zM129 1536h350l-20 -1024h-307z" />
<glyph unicode="#" horiz-adv-x="1153" d="M63 289v284h160v388h-160v284h160v291h273v-291h168v291h272v-291h151v-284h-151v-388h151v-284h-151v-289h-272v289h-168v-289h-273v289h-160zM496 573v2v-2h168v388h-168v-388z" />
<glyph unicode="$" d="M55 1104q0 131 58 219q53 92 151 147q95 56 223 74v232h248v-228l127 -20l117 -35v-285h-16l-95 23l-106 16l-98 6h-56q-92 3 -139 -30q-53 -35 -53 -111q0 -69 43 -106q41 -35 133 -62l104 -35q121 -35 197 -90q77 -55 111 -141q39 -83 36 -213q0 -143 -53 -238 q-49 -98 -143 -153q-91 -57 -217 -78v-252h-248v2v-2v242l-164 26q-54 12 -152 41v291h17l162 -43l198 -20h27l106 14q52 13 78 51q29 40 29 111q0 70 -39 106q-42 42 -121 62l-112 28q-98 27 -177 84q-79 55 -127 146q-49 88 -49 221z" />
<glyph unicode="%" horiz-adv-x="1665" d="M47 1104q0 216 98 323q95 109 271 109q177 0 272 -109q96 -110 96 -323q0 -214 -96 -324q-94 -108 -272 -108q-177 0 -271 108q-98 107 -98 324zM319 1104q0 -140 25 -201q24 -58 72 -55q50 -3 71 55q25 61 25 201t-25 201q-21 58 -71 55q-48 3 -72 -55q-25 -61 -25 -201 zM416 0v33l671 1503h160v-35l-672 -1501h-159zM883 432q0 214 96 324q91 108 268 108q179 0 273 -108q96 -110 96 -324q0 -213 -96 -323q-95 -109 -273 -109q-176 0 -268 109q-96 110 -96 323zM1153 432q0 -137 23 -201q24 -58 71 -55v2v-2q50 -3 74 55q22 61 22 201 t-22 201q-24 58 -74 55q-47 3 -71 -55q-23 -64 -23 -201z" />
<glyph unicode="&#x26;" horiz-adv-x="1280" d="M80 457q3 80 37 149q35 72 94 125q61 58 125 78q-74 35 -127 121q-54 83 -57 207q3 145 75 235q76 91 197 135q119 45 264 45h27l110 -8l123 -20l103 -31v-293h-19l-153 33l-164 12h-27q-77 3 -127 -35q-46 -40 -49 -125q3 -73 45 -112q45 -45 123 -45h539v-289h-115 v-567l-127 -39q-92 -25 -164 -35l-178 -14q-166 -3 -291 49t-194 155q-67 104 -70 269zM440 465q3 -91 54 -133q55 -43 141 -43v2v-2l67 6l58 6v338h-96q-101 3 -162 -39q-59 -44 -62 -135z" />
<glyph unicode="'" horiz-adv-x="512" d="M63 1536h388l-52 -416h-284v2v-2z" />
<glyph unicode="(" horiz-adv-x="800" d="M63 608v64q0 192 46 354q45 171 124 295q84 131 199 215h303v-35q-127 -112 -194 -246q-73 -136 -99 -282q-26 -144 -26 -301v-64q0 -159 26 -303t99 -280q66 -135 194 -248v-33h-303v2v-2q-114 81 -199 213q-79 127 -124 295q-46 165 -46 356z" />
<glyph unicode=")" horiz-adv-x="800" d="M96 -223q131 116 199 248q70 130 94 280q30 165 27 303v64q3 136 -27 301q-24 151 -94 282q-68 131 -199 246v35h303q119 -87 201 -215q81 -127 125 -295q43 -162 43 -354v-64q0 -191 -43 -356q-44 -165 -125 -295q-83 -130 -201 -213h-303v2v-2v33z" />
<glyph unicode="*" horiz-adv-x="864" d="M63 989l170 121l-170 115l113 188l152 -98v221h211v-215l149 100l115 -188l-170 -119l170 -117l-115 -188l-149 96v-217h-211v2v-2v215l-152 -102z" />
<glyph unicode="+" d="M129 608v287h270v305h281v-305h283v-287h-283v-307h-281v2v-2v307h-270z" />
<glyph unicode="," horiz-adv-x="567" d="M-33 -254v-2l162 608h342v-131l-256 -477h-248v2z" />
<glyph unicode="." horiz-adv-x="567" d="M115 0v2v-2v352h344v-352h-344z" />
<glyph unicode="/" horiz-adv-x="1064" d="M88 -223l592 1759h299v-35l-594 -1757h-297v2v-2v33z" />
<glyph unicode="0" d="M43 768q0 291 57 459q58 173 172 250q113 78 275 75q157 3 270 -75q114 -77 172 -250q59 -174 62 -459q-3 -284 -62 -461q-59 -174 -172 -250q-110 -76 -268 -73q-164 -3 -277 73t-172 250q-57 171 -57 461zM385 768q-3 -190 12 -301q15 -112 49 -158q36 -48 101 -45v2 v-2q60 -3 96 45q34 46 49 158q15 111 15 301t-15 301q-15 112 -49 158q-33 45 -96 45q-68 0 -101 -45q-34 -46 -49 -158q-15 -111 -12 -301z" />
<glyph unicode="1" d="M96 1040v293l479 203h220v-1536h-344v2v-2v1176l-336 -136h-19z" />
<glyph unicode="2" d="M80 0v2v-2v229q0 109 26 191q24 84 91 164q66 78 182 157l100 72l115 94q43 43 55 86q15 43 15 92q3 84 -58 129q-56 39 -190 39h-320v283h383q271 -3 402 -119q127 -115 127 -321q0 -120 -37 -201q-39 -86 -105 -152l-159 -127l-107 -71q-82 -56 -131 -121 q-45 -57 -45 -123v-20h600v-281h-944z" />
<glyph unicode="3" d="M80 0v2v-2v281h360q98 0 160 47q61 49 64 141q-3 93 -64 127q-65 32 -160 29h-200v270h247q62 39 103 86q42 51 45 115q-3 83 -49 123q-46 37 -127 34h-363v283h371l256 -31q114 -30 182 -110q71 -80 74 -230q0 -83 -49 -168q-46 -87 -148 -155q107 -37 166 -123 q60 -91 60 -242q0 -149 -68 -258q-63 -105 -184 -164q-116 -55 -277 -55h-399z" />
<glyph unicode="4" d="M35 248v229q84 173 145 350q62 180 107 371q40 181 49 338h344q-15 -168 -55 -338q-41 -172 -99 -336q-57 -163 -141 -309h223v276h344v-276h99v-305h-99v-248h-344v2v-2v248h-573z" />
<glyph unicode="5" d="M96 0v2v-2v281h328q120 0 184 49q64 52 64 166q0 69 -35 110q-36 36 -94 51l-135 15h-293v864h864v-283h-539v-292h39q255 0 395 -113q139 -115 142 -336q0 -184 -74 -299q-74 -111 -209 -164q-131 -52 -309 -49h-328z" />
<glyph unicode="6" d="M63 496v432q0 203 82 334q78 136 230 204q146 70 352 70h236v-283h-267q-134 0 -211 -71q-74 -68 -77 -205v-29q53 27 98 35l102 14q217 0 326 -127q106 -124 106 -366q0 -157 -59 -275q-66 -116 -174 -182q-111 -63 -268 -63q-239 0 -355 131q-121 127 -121 381z M408 496q0 -119 34 -177q34 -55 113 -55v2v-2q81 3 111 68q33 65 30 172q0 112 -37 164q-38 56 -112 53l-72 -6l-67 -23v-196z" />
<glyph unicode="7" d="M80 1253v283h960v-223q-113 -135 -221 -328q-99 -182 -157 -397q-59 -216 -62 -461v-127h-344v2v-2v127q3 195 43 365q39 167 109 319q58 129 143 256q78 116 145 186h-616z" />
<glyph unicode="8" d="M47 424q0 73 27 131q25 60 63 104l86 82l53 45q-84 55 -145 148q-56 84 -59 211q3 132 67 223q64 88 170 135q107 49 230 49h20q230 0 346 -104q119 -104 119 -303q0 -60 -23 -121l-55 -104l-74 -80l-47 -43q99 -59 160 -146q63 -86 66 -219q-3 -141 -70 -242 q-62 -97 -172 -151q-110 -55 -250 -55h-20q-143 -3 -252 47q-111 47 -174 143q-66 101 -66 250zM391 449q-3 -82 31 -134q33 -48 117 -51v2v-2h20q80 3 113 51q35 53 35 134q-3 59 -33 100l-74 61l-88 43l-18 13l-35 -41q-39 -39 -53 -82q-15 -47 -15 -94zM399 1120 q3 -78 47 -116l109 -68l51 -31l41 56l39 71q13 43 10 88q0 73 -34 113q-33 36 -103 39h-20q-69 -3 -103 -43q-37 -40 -37 -109z" />
<glyph unicode="9" d="M47 1024q0 157 64 270q63 116 174 179q108 60 262 63q234 -3 354 -129q123 -132 123 -383v-432q0 -199 -80 -332q-83 -133 -229 -197q-147 -63 -355 -63h-217v281h248q134 0 211 65q75 63 78 199v24l-96 -34l-105 -15q-209 3 -319 131q-113 131 -113 373zM391 1024 q0 -117 39 -168q40 -55 117 -55v2v-2l67 6l66 18v199q3 115 -33 176q-35 56 -108 53q-83 0 -117 -63q-34 -64 -31 -166z" />
<glyph unicode=":" horiz-adv-x="567" d="M115 0v2v-2v352h344v-352h-344zM115 768v352h344v-352h-344z" />
<glyph unicode=";" horiz-adv-x="567" d="M-33 -254v-2l162 608h342v-131l-256 -477h-248v2zM115 768v352h344v-352h-344z" />
<glyph unicode="&#x3c;" d="M129 625v256l815 424h19v-328l-476 -225l476 -224v-327h-19v2v-2z" />
<glyph unicode="=" d="M129 336v2v-2v289h834v-289h-834zM129 829v291h834v-291h-834z" />
<glyph unicode="&#x3e;" d="M129 201v2v-2v327l471 224l-471 225v328h14l820 -424v-256l-820 -424h-14z" />
<glyph unicode="?" horiz-adv-x="864" d="M63 1233v303h336q208 -3 308 -100q104 -94 104 -285q0 -68 -23 -135q-21 -61 -67 -131l-129 -172l-113 -148v-53h-350v61l182 236l84 113l49 86l15 77q0 80 -45 113q-44 38 -150 35h-201zM129 0v2v-2v352h342v-352h-342z" />
<glyph unicode="@" horiz-adv-x="1720" d="M96 672q3 185 56 346q58 166 155 280q100 118 248 187q143 64 328 67q211 0 379 -77q167 -75 264 -236q95 -157 98 -391q-3 -249 -135 -387q-141 -141 -385 -144h-213q-174 3 -275 91t-104 264q3 179 102 278q98 104 277 107h256v-561h20q74 0 121 53q44 50 62 129 q21 80 18 170q0 165 -61 272q-63 106 -172 156q-107 52 -252 49q-172 -3 -285 -88q-117 -86 -176 -236q-59 -148 -62 -329q3 -188 70 -334q69 -150 199 -234q125 -85 307 -88l178 11l158 26h16v-213l-166 -39l-186 -12q-262 3 -449 117q-186 113 -288 309q-100 196 -103 457 zM735 672q0 -82 39 -127q37 -49 117 -49v2v-2h29v385h-29q-84 -3 -121 -64q-38 -59 -35 -145z" />
<glyph unicode="A" horiz-adv-x="1296" d="M35 0v16q53 330 121 639q63 286 133 519q64 214 127 362h456q71 -152 134 -362q65 -209 137 -519q68 -309 121 -639v-16h-381l-23 160l-26 176h-402l-26 -176l-21 -160h-350zM483 625v2v-2h49h105h102h47l-49 252l-47 215l-49 161l-51 -159l-53 -217z" />
<glyph unicode="B" horiz-adv-x="1312" d="M143 0v1536h545q150 0 260 -43q112 -43 174 -135t62 -238v-13q0 -89 -39 -165q-44 -81 -146 -133q98 -37 156 -125q61 -85 64 -215q-3 -239 -144 -356q-136 -113 -375 -113h-12h-545zM487 301v2v-2h177h13q89 0 134 39q45 40 45 126v11q0 96 -47 131q-45 31 -130 31h-15 h-177v-338zM487 909h177q79 3 120 47q39 45 39 121q0 78 -39 117q-42 39 -120 39h-177v-324z" />
<glyph unicode="C" horiz-adv-x="1216" d="M80 688v160q0 338 164 520q166 181 499 184l224 -26l172 -53v-433h-316v193l-51 8l-57 4q-115 0 -172 -45q-59 -47 -80 -131q-23 -94 -23 -205v-176q0 -144 31 -235q34 -88 96 -127q64 -37 160 -37h49l121 10l119 18l88 27h16v-291l-82 -26l-127 -31l-135 -12h-49v2v-2 q-342 0 -494 180q-153 178 -153 511v13z" />
<glyph unicode="D" horiz-adv-x="1415" d="M143 0v1536h484q246 -3 403 -86q156 -82 232 -229q73 -146 73 -340v-193q0 -206 -69 -356q-70 -151 -230 -242q-153 -87 -409 -90h-484zM487 301v2v-2h148q179 3 260 115q84 113 84 305v127q0 178 -84 282q-81 100 -260 103h-148v-932z" />
<glyph unicode="E" horiz-adv-x="1103" d="M143 397v1139h848v-303h-504v-305h441v-303h-441v-160v-15q0 -83 31 -114q32 -35 105 -35h12h389v-301h-512v2v-2q-180 0 -274 104q-95 103 -95 293z" />
<glyph unicode="F" horiz-adv-x="1007" d="M143 0v2v-2v1040q3 263 140 379q132 117 371 117h12h297v-303h-308q-85 0 -125 -49q-43 -46 -43 -144v-176h441v-307h-441v-557h-344z" />
<glyph unicode="G" horiz-adv-x="1351" d="M80 680v160q3 246 96 399q96 162 254 238q156 75 365 75l219 -24l213 -64v-299h-19q-113 46 -215 64l-198 16h-10q-167 0 -255 -94q-90 -96 -90 -311v-160q0 -206 70 -297q70 -94 217 -94h49l66 6l61 6v244h-188v295h512v-768l-111 -37l-155 -35l-185 -16h-49v2v-2h-11 q-320 0 -476 170q-160 174 -160 526z" />
<glyph unicode="H" horiz-adv-x="1409" d="M143 0v2v-2v1536h344v-608h433v608h344v-1536h-344v625h-433v-625h-344z" />
<glyph unicode="I" horiz-adv-x="624" d="M143 0v2v-2v1536h344v-1536h-344z" />
<glyph unicode="J" horiz-adv-x="927" d="M63 0v2v-2v301h160q108 0 152 53q41 47 41 144v14v721h-287v303h631v-1024q0 -252 -125 -383q-126 -129 -379 -129h-193z" />
<glyph unicode="K" horiz-adv-x="1359" d="M168 0v2v-2v1536h344v-584h88l336 584h387v-16l-440 -707l460 -797v-16h-399l-360 645h-72v-645h-344z" />
<glyph unicode="L" horiz-adv-x="1024" d="M143 397v1139h344v-1071v-15q0 -83 31 -114q32 -35 105 -35h12h344v-301h-467v2v-2q-180 0 -274 104q-95 103 -95 293z" />
<glyph unicode="M" horiz-adv-x="1665" d="M143 0v2v-2v1536h336l352 -584l369 584h320v-1536h-344v977l-285 -465h-123l-281 457v-969h-344z" />
<glyph unicode="N" horiz-adv-x="1439" d="M143 0v2v-2v1536h328l481 -872v872h344v-1536h-325l-484 872v-872h-344z" />
<glyph unicode="O" horiz-adv-x="1423" d="M80 741v68v14q0 344 147 533q153 193 488 196q331 -3 481 -196q147 -189 147 -533v-14v-68q0 -239 -63 -405q-65 -170 -205 -260q-139 -92 -360 -92q-226 0 -365 92q-139 89 -207 260q-63 166 -63 405zM440 741q0 -131 21 -233q18 -100 78 -160q56 -56 176 -59v2v-2 q116 3 172 59q57 57 78 160q18 102 18 233v68q0 130 -18 229q-21 100 -78 154q-59 53 -172 53q-117 0 -176 -53q-60 -57 -78 -154q-21 -99 -21 -229v-68z" />
<glyph unicode="P" horiz-adv-x="1280" d="M143 0v1536h473q180 0 308 -55q133 -59 204 -183q72 -126 72 -321q-3 -216 -84 -346t-221 -189q-142 -59 -311 -59h-97v-383h-344zM487 688v2v-2h80h19q86 0 141 25q61 24 86 90q27 61 27 174q0 95 -29 158q-27 56 -86 77l-158 21h-80v-545z" />
<glyph unicode="Q" horiz-adv-x="1423" d="M80 741v68v14q0 344 147 533q153 193 488 196q331 -3 481 -196q147 -189 147 -533v-14v-68v-15q0 -313 -120 -505q-126 -193 -400 -231v-33q0 -66 33 -86q29 -23 83 -23h13l140 15l100 22h16v-221l-110 -33l-146 -16q-160 0 -254 70q-95 71 -98 227v78q-271 37 -397 231 q-123 192 -123 505v15zM440 741q0 -131 21 -233q18 -100 78 -160q56 -56 176 -59v2v-2q116 3 172 59q57 57 78 160q18 102 18 233v68q0 130 -18 229q-21 100 -78 154q-59 53 -172 53q-117 0 -176 -53q-60 -57 -78 -154q-21 -99 -21 -229v-68z" />
<glyph unicode="R" horiz-adv-x="1312" d="M143 0v1536h484q181 0 303 -45q129 -46 200 -160q70 -107 70 -299q0 -124 -33 -203q-30 -80 -88 -135q-47 -50 -127 -94q67 -55 117 -133l92 -172l66 -166l28 -113v-16h-358l-31 100l-57 138l-78 139q-41 62 -90 92h-154v-469h-344zM487 768v2v-2h80h14q129 0 193 53 q66 60 66 195q0 87 -29 137q-28 48 -86 66l-158 14h-80v-465z" />
<glyph unicode="S" horiz-adv-x="1167" d="M96 1104q3 145 74 248q68 98 197 149q119 51 280 51h76l158 -16l151 -43v-285h-16l-92 23l-105 16l-96 6h-76h-15q-81 0 -124 -30q-49 -34 -49 -111v-9q0 -61 39 -97q45 -36 137 -62l100 -35q123 -35 201 -90q81 -57 121 -141q39 -82 39 -213q-3 -166 -74 -275 q-71 -104 -203 -155q-126 -51 -282 -51h-17h-41v2v-2l-188 20q-91 19 -187 49v291h19l162 -43l194 -20h41l111 14q51 13 76 51q28 39 28 111q-3 71 -47 106q-47 41 -129 62l-108 28q-96 26 -179 84q-79 55 -127 146q-46 87 -49 221z" />
<glyph unicode="T" horiz-adv-x="1048" d="M16 1233v303h1016v-303h-336v-1233h-344v2v-2v1233h-336z" />
<glyph unicode="U" horiz-adv-x="1423" d="M143 573v963h344v-969v-21q0 -69 17 -130q15 -64 65 -99q49 -34 146 -34q95 0 141 34q50 37 64 99q16 58 16 128v23v969h344v-958q-3 -301 -152 -447q-145 -145 -403 -145h-10v2v-2h-12q-282 0 -418 145q-142 148 -142 442z" />
<glyph unicode="V" horiz-adv-x="1327" d="M47 1520v16h377l45 -319l61 -349l70 -321q39 -154 72 -238q39 85 78 238l75 321l66 349l45 319h344v-16l-76 -461l-94 -426l-104 -365q-48 -149 -109 -268h-473v2v-2q-56 112 -109 264q-54 167 -102 365q-46 184 -92 430q-45 234 -74 461z" />
<glyph unicode="W" horiz-adv-x="2064" d="M47 1520v16h377l31 -309l39 -342q22 -180 55 -324q27 -152 67 -252q39 99 84 250l80 320l66 342l45 315h301l43 -311l59 -336q44 -217 72 -320q37 -136 82 -260q43 119 72 262l57 324l41 336l33 305h364v-16l-49 -424l-78 -414l-94 -377q-55 -183 -106 -305h-433 q-24 56 -81 221q-40 115 -80 260q-38 142 -62 271q-28 -152 -63 -275l-80 -264l-78 -213h-440v2v-2q-69 154 -119 330q-46 160 -94 389q-48 241 -70 407q-31 234 -41 394z" />
<glyph unicode="X" horiz-adv-x="1280" d="M35 0v2v-2v16l418 762l-406 742v16h377l217 -403l223 403h355v-16l-398 -719l426 -785v-16h-375l-239 449l-248 -449h-350z" />
<glyph unicode="Y" horiz-adv-x="1280" d="M35 1520v16h356l256 -635l264 635h336v-16l-444 -947v-573h-344v2v-2v573z" />
<glyph unicode="Z" horiz-adv-x="1153" d="M63 0v2v-2v209l173 242l176 282l147 279q69 141 96 221h-559v303h991v-215l-90 -219l-137 -277l-160 -280l-161 -244h548v-301h-1024z" />
<glyph unicode="[" horiz-adv-x="720" d="M96 -254v-2v1792h545v-256h-217v-1280h217v-256h-545v2z" />
<glyph unicode="\" horiz-adv-x="1064" d="M88 1501v35h297l594 -1759v-33h-299v2v-2z" />
<glyph unicode="]" horiz-adv-x="720" d="M80 0h219v1280h-219v256h547v-1792h-547v2v-2v256z" />
<glyph unicode="^" d="M0 221v2v-2v19l424 880h240l423 -880v-19h-319l-221 539l-228 -539h-319z" />
<glyph unicode="_" d="M0 0h1087v-291h-1087v2v-2v291z" />
<glyph unicode="`" horiz-adv-x="1153" d="M215 1569v28h272l193 -284v-33h-184v2v-2z" />
<glyph unicode="a" horiz-adv-x="1159" d="M72 344v213q3 186 73 311q75 125 205 189q123 63 297 63h404v-1120h-344v135l-35 -22l-113 -78q-54 -33 -96 -41l-103 -10h-8q-122 0 -198 84q-79 85 -82 276zM416 416q0 -72 16 -101q14 -26 55 -26v2v-2l68 18l117 82l35 29v422h-52l-133 -23q-52 -21 -80 -82 q-26 -56 -26 -162v-157z" />
<glyph unicode="b" horiz-adv-x="1159" d="M115 0v1536h344v-555l28 27l115 77q55 33 98 41l103 11h8q121 0 197 -84q76 -85 79 -277v-219q-3 -182 -73 -307q-75 -125 -203 -189q-128 -61 -299 -61h-397zM459 281v2v-2h45q82 0 135 20q53 24 80 82q24 58 24 162v160q0 71 -16 100q-11 24 -47 24h-8h-7 q-24 0 -59 -18l-119 -86l-28 -23v-421z" />
<glyph unicode="c" horiz-adv-x="1007" d="M63 440v213q3 157 66 262q62 104 176 164q113 58 262 58l195 -25q84 -21 158 -63v-377h-279v168l-31 10l-51 6q-78 0 -113 -47q-38 -46 -38 -145v-187v-13q0 -96 43 -147q44 -53 149 -53l152 17l145 36h14v-264q-65 -29 -151 -49l-176 -20v2v-2h-18q-141 0 -257 45 q-117 48 -180 147q-66 104 -66 264z" />
<glyph unicode="d" horiz-adv-x="1159" d="M72 344v213q3 186 73 311q75 125 205 189q123 63 297 63h60v416h344v-1536h-344v135l-35 -22l-113 -78q-54 -33 -96 -41l-103 -10h-8q-122 0 -198 84q-79 85 -82 276zM416 416q0 -72 16 -101q14 -26 55 -26v2v-2l68 18l117 82l35 29v422h-52l-133 -23q-52 -21 -80 -82 q-26 -56 -26 -162v-157z" />
<glyph unicode="e" horiz-adv-x="1056" d="M63 440v213q3 164 66 269q63 106 178 159q118 56 268 56q209 0 316 -88q105 -86 108 -273q0 -132 -51 -203q-51 -68 -143 -104q-86 -29 -193 -29h-20h-184v-16v-10q0 -75 43 -113q40 -37 141 -37l125 8l94 19l86 26h14v-264q-75 -31 -178 -51l-174 -18h-13 q-228 0 -349 104q-131 107 -134 352zM408 645v2v-2h159q58 0 88 27q33 26 33 80v9q0 44 -26 68q-24 27 -87 27q-86 0 -126 -43q-41 -41 -41 -141v-27z" />
<glyph unicode="f" horiz-adv-x="688" d="M16 840v280h127v31q0 123 54 211q52 85 145 131q90 43 217 43h176v-256h-88h-13q-63 0 -104 -27q-43 -24 -43 -102v-31h185v-280h-185v-840h-344v2v-2v840h-127z" />
<glyph unicode="g" horiz-adv-x="1159" d="M72 432v141q3 173 69 293q72 122 191 189q115 62 276 65h443v-960q-3 -258 -156 -402q-149 -143 -424 -143h-276v281h190l186 20q67 20 103 84q33 59 33 176v21l-60 -37q-67 -42 -129 -68q-67 -28 -139 -31q-153 3 -229 97q-78 96 -78 274zM416 477q0 -57 18 -84 q15 -24 45 -24v2v-2l70 10l86 37l72 37v387h-66q-113 0 -170 -66q-55 -64 -55 -201v-96z" />
<glyph unicode="h" horiz-adv-x="1200" d="M115 0v2v-2v1536h344v-555l61 51q81 62 142 82l149 23q75 0 139 -37q60 -34 101 -111q36 -71 36 -188v-801h-344v705q0 73 -16 102q-15 25 -47 22l-45 -6l-60 -30l-88 -68l-28 -23v-702h-344z" />
<glyph unicode="i" horiz-adv-x="616" d="M27 840v280h469v-1120h-344v2v-2v840h-125zM152 1245v291h344v-291h-344z" />
<glyph unicode="j" horiz-adv-x="616" d="M-80 -104h47h13q99 0 139 43q41 41 41 136v13v752h-133v280h477v-1059q-3 -148 -60 -247q-57 -100 -157 -150q-98 -49 -224 -49h-143v281zM160 1245v291h344v-291h-344z" />
<glyph unicode="k" horiz-adv-x="1136" d="M115 0v2v-2v1536h344v-803h69l248 387h363v-16l-336 -479l336 -609v-16h-379l-240 449h-61v-449h-344z" />
<glyph unicode="l" horiz-adv-x="583" d="M0 1253v283h471v-1536h-342v2v-2v1253h-129z" />
<glyph unicode="m" horiz-adv-x="1816" d="M115 0v2v-2v1120h344v-139l61 51q81 62 142 82l149 23q76 0 141 -41q61 -37 101 -119h18l76 55q84 64 139 82l146 23q75 0 139 -37q61 -34 96 -111q37 -73 37 -188v-801h-344v705q0 75 -12 102q-16 25 -41 22l-50 -6l-57 -30l-88 -68l-33 -23v-702h-344v705q0 72 -10 102 q-16 25 -45 22l-45 -6l-60 -30l-88 -68l-28 -23v-702h-344z" />
<glyph unicode="n" horiz-adv-x="1200" d="M115 0v2v-2v1120h344v-139l61 51q81 62 142 82l149 23q75 0 139 -37q60 -34 101 -111q36 -71 36 -188v-801h-344v705q0 73 -16 102q-15 25 -47 22l-45 -6l-60 -30l-88 -68l-28 -23v-702h-344z" />
<glyph unicode="o" horiz-adv-x="1153" d="M63 557q0 290 132 434q131 146 380 146q262 0 390 -146q122 -140 122 -420v-14q0 -204 -53 -334q-55 -124 -168 -182q-111 -57 -275 -57h-16h-15q-153 0 -265 57q-115 59 -172 182q-60 132 -60 334zM408 557q0 -97 12 -164t49 -96q36 -33 106 -33v2v-2q73 0 109 33 q38 30 47 96l12 164l-12 168q-9 63 -47 98q-36 33 -109 33q-70 0 -106 -33q-37 -34 -49 -98q-12 -67 -12 -168z" />
<glyph unicode="p" horiz-adv-x="1159" d="M115 -385v1505h344v-139l28 27l115 77q55 33 98 41l103 11h8q122 0 197 -84q76 -85 79 -277v-219q-3 -182 -73 -307q-75 -125 -203 -189q-128 -61 -299 -61h-53v-385h-344zM459 281v2v-2h45q82 0 135 20q53 24 80 82q24 58 24 162v160q0 71 -16 100q-11 24 -47 24h-8h-7 q-24 0 -59 -18l-119 -86l-28 -23v-421z" />
<glyph unicode="q" horiz-adv-x="1159" d="M72 344v213q3 186 73 311q75 125 205 189q123 63 297 63h404v-1505h-344v520l-35 -22l-113 -78q-54 -33 -96 -41l-103 -10h-8q-123 0 -198 84q-79 85 -82 276zM416 416q0 -72 16 -101q14 -26 55 -26v2v-2l68 18l117 82l35 29v422h-52l-133 -23q-52 -21 -80 -82 q-26 -56 -26 -162v-157z" />
<glyph unicode="r" horiz-adv-x="815" d="M123 0v2v-2v1120h344v-151l45 63q49 61 109 82l131 23h51v-297h-88q-70 -3 -121 -29l-98 -78l-29 -28v-705h-344z" />
<glyph unicode="s" horiz-adv-x="976" d="M72 25v276h16l164 -27l156 -10l120 19q39 17 39 61q0 37 -22 53l-66 27l-127 33q-111 28 -168 73q-57 43 -82 109q-22 64 -22 137q3 122 65 201q63 78 179 119q118 41 268 41l151 -11l129 -22v-283h-16l-131 25l-141 10l-74 -6q-38 -6 -59 -21q-24 -15 -27 -36 q0 -37 25 -56q20 -15 63 -24l104 -25q91 -23 152 -57q62 -39 104 -109q39 -65 39 -170q-3 -142 -65 -221q-63 -80 -178 -115q-106 -32 -237 -32h-23v2v-2l-177 10z" />
<glyph unicode="t" horiz-adv-x="768" d="M0 840v280h143v287h344v-287h248v-280h-248v-328q0 -88 15 -137q16 -55 57 -76q43 -18 121 -18h55v-281h-143v2v-2q-217 0 -332 109q-117 108 -117 323v408h-143z" />
<glyph unicode="u" horiz-adv-x="1200" d="M115 317v803h344v-704q0 -80 14 -105q16 -25 47 -22h9q30 0 65 18l121 82l28 29v702h344v-1120h-344v135l-63 -47q-82 -63 -139 -84l-150 -20v2v-2h-12q-71 0 -127 34q-59 33 -100 111q-37 75 -37 188z" />
<glyph unicode="v" d="M72 733v387h344v-352q0 -193 37 -317q34 -128 102 -211q63 80 90 211q27 126 27 285v32v352h344v-387q-3 -195 -45 -334q-45 -137 -111 -241q-64 -98 -133 -158h-383v2v-2q-52 52 -121 158q-61 101 -104 241q-44 136 -47 334z" />
<glyph unicode="w" horiz-adv-x="1687" d="M72 768v352h344v-352v-38q0 -166 24 -279q26 -126 99 -211q59 86 96 241q37 154 37 348v291h344v-291q3 -199 39 -348q38 -157 98 -241q70 82 94 211q25 117 25 281v36v352h344v-352q-3 -208 -45 -352q-49 -159 -109 -256q-66 -108 -127 -160h-356l-43 70l-57 114 l-48 113l-49 -113l-63 -114l-47 -70h-353v2v-2q-57 54 -116 160q-56 101 -92 256q-36 143 -39 352z" />
<glyph unicode="x" horiz-adv-x="1040" d="M27 0v2v-2v16l321 541l-313 547v16h344l147 -260l154 260h328v-16l-316 -533l324 -555v-16h-344l-158 272l-162 -272h-325z" />
<glyph unicode="y" horiz-adv-x="1208" d="M115 432v688h344v-643q0 -59 14 -84q15 -24 47 -24l68 10l84 37l71 37v667h344v-960q-3 -263 -151 -402q-149 -143 -424 -143h-281v281h193l186 20q67 20 103 84q30 62 30 176v19l-55 -35q-67 -42 -129 -68q-67 -28 -143 -31q-150 3 -226 97q-75 93 -75 274z" />
<glyph unicode="z" horiz-adv-x="944" d="M47 0v2v-2v209q89 98 172 215l162 229l106 187h-424v280h820v-211l-72 -139l-102 -172l-117 -174l-113 -143h418v-281h-850z" />
<glyph unicode="{" horiz-adv-x="927" d="M63 520v240q99 9 146 35q48 28 65 75q17 56 17 119v195q0 178 102 266q109 86 314 86h157v-256h-49l-108 -18q-39 -20 -54 -66t-12 -127v-125q-3 -101 -37 -162q-35 -59 -94 -94q-56 -33 -131 -49q80 -17 131 -47q60 -35 94 -96t37 -160v-127q-3 -81 12 -127 q15 -47 54 -64q37 -21 108 -18h49v-256h-157v2v-2q-205 0 -314 86q-102 86 -102 266v193q0 66 -17 119q-17 47 -65 75q-51 28 -146 37z" />
<glyph unicode="|" horiz-adv-x="591" d="M152 -385v2048h288v-2048h-288z" />
<glyph unicode="}" horiz-adv-x="927" d="M63 0h52q102 -3 139 43q40 46 37 166v127q0 98 35 160q34 61 94 96q52 31 135 47q-78 15 -135 49q-59 35 -94 94q-35 62 -35 162v125q3 122 -37 168q-37 46 -139 43h-52v256h160q203 0 312 -86q103 -87 106 -266v-195q-3 -64 14 -119q14 -47 68 -75q44 -26 141 -35v-240 q-92 -9 -141 -37q-54 -28 -68 -75q-17 -52 -14 -119v-193q-3 -182 -106 -266q-109 -86 -312 -86h-160v2v-2v256z" />
<glyph unicode="~" d="M129 469v2v-2v283q29 56 86 98q57 45 137 45l103 -18l104 -50l100 -47q47 -20 84 -20q76 0 123 35q43 34 78 100h19v-279q-34 -58 -91 -100q-55 -44 -137 -47l-100 23l-107 49l-100 45l-84 22q-64 0 -113 -37q-43 -32 -88 -102h-14z" />
<glyph horiz-adv-x="385" d="M0 0v2v-2z" />
<glyph horiz-adv-x="385" d="M0 0v2v-2z" />
<glyph horiz-adv-x="385" d="M0 0v2v-2z" />
<glyph horiz-adv-x="385" d="M0 0v2v-2z" />
<glyph horiz-adv-x="385" d="M0 0v2v-2z" />
<glyph unicode="&#xa0;" horiz-adv-x="385" d="M0 0v2v-2z" />
<glyph unicode="&#xa1;" horiz-adv-x="600" d="M129 0v2v-2l23 1024h307l20 -1024h-350zM135 1184v352h344v-352h-344z" />
<glyph unicode="&#xa2;" d="M80 680v160q3 304 135 483q136 177 377 217v236h248v-230l114 -20l105 -33v-293h-19l-73 23l-99 16l-141 6q-140 -3 -211 -102q-73 -104 -76 -287v-176q0 -195 70 -293t225 -98h33l147 12q77 16 125 35h19v-295l-94 -31l-134 -22v-244h-247v2v-2v250q-254 37 -377 207 q-127 171 -127 479z" />
<glyph unicode="&#xa3;" d="M63 0v2v-2v301h113q35 32 57 96q23 71 23 131v97h-160v303h160v53q3 279 154 418q149 137 430 137h159v-303h-159q-118 0 -181 -66q-59 -65 -59 -186v-53h272v-303h-272v-97q0 -68 -18 -129q-17 -54 -54 -98h471v-301h-936z" />
<glyph unicode="&#xa4;" horiz-adv-x="385" d="M0 0v2v-2z" />
<glyph unicode="&#xa5;" d="M-16 1520v16h360l215 -512l225 512h336v-16l-405 -848v-115h309v-301h-309v-256h-344v2v-2v256h-308v301h308v115z" />
<glyph unicode="&#xa6;" horiz-adv-x="591" d="M152 -385v834h288v-834h-288zM152 829v834h288v-834h-288z" />
<glyph unicode="&#xa8;" horiz-adv-x="1153" d="M231 1280v2v-2v256h256v-256h-256zM664 1280v256h247v-256h-247z" />
<glyph unicode="&#xa9;" horiz-adv-x="1640" d="M96 784q3 227 90 394q88 168 250 262q161 93 387 96q226 -3 387 -96q164 -95 248 -262q86 -170 86 -394q0 -225 -86 -395q-84 -167 -248 -262q-163 -91 -387 -94q-224 3 -387 94q-162 94 -250 262q-87 167 -90 395zM283 784q-3 -179 53 -315q56 -138 176 -215 q122 -78 311 -78q190 0 312 78q116 76 172 215q56 136 53 315q3 180 -53 316q-56 139 -172 215q-118 75 -312 78q-193 -3 -311 -78q-120 -77 -176 -215q-56 -136 -53 -316zM471 784q0 144 57 236q56 92 150 135q91 45 213 45l102 -10l94 -25v-108l-94 20l-102 8 q-110 0 -166 -77q-53 -77 -53 -224q0 -148 57 -225q58 -79 168 -82l111 10l79 25v-115l-79 -18l-111 -10v2v-2q-120 0 -213 43q-97 48 -154 137q-59 89 -59 235z" />
<glyph unicode="&#xaa;" horiz-adv-x="976" d="M96 944v176q3 134 60 223q60 93 151 144q94 49 213 49h363v-864h-275v112l-33 -24q-47 -38 -106 -62q-56 -26 -125 -26q-120 0 -184 67q-61 70 -64 205zM104 336v176h779v-176h-779zM371 944q-3 -55 12 -76q16 -23 49 -20v2v-2q35 0 74 22l69 50l33 24v416h-61 q-87 0 -133 -55q-43 -55 -43 -168v-193z" />
<glyph unicode="&#xab;" horiz-adv-x="1024" d="M63 573v228l396 319h20v-256l-207 -176l207 -176v-256h-20v2v-2zM547 573v228l389 319h27v-256l-211 -176l211 -176v-256h-27z" />
<glyph unicode="&#xac;" d="M129 608v287h834v-594h-291v2v-2v307h-543z" />
<glyph unicode="&#xad;" horiz-adv-x="704" d="M63 608v2v-2v287h578v-287h-578z" />
<glyph unicode="&#xae;" horiz-adv-x="1640" d="M96 784q3 227 90 394q88 168 250 262q161 93 387 96q226 -3 387 -96q164 -95 248 -262q86 -170 86 -394q0 -225 -86 -395q-84 -167 -248 -262q-163 -91 -387 -94q-224 3 -387 94q-162 94 -250 262q-87 167 -90 395zM283 784q-3 -179 53 -315q56 -138 176 -215 q122 -78 311 -78q190 0 312 78q116 76 172 215q56 136 53 315q3 180 -53 316q-56 139 -172 215q-118 75 -312 78q-193 -3 -311 -78q-120 -77 -176 -215q-56 -136 -53 -316zM528 369v831h275l164 -20q76 -21 127 -78q50 -50 53 -158q-3 -87 -49 -145q-47 -65 -119 -86 l188 -330v-14h-204l-156 276h-80v-276h-199zM727 768v2v-2h49q69 -3 119 41q46 40 49 135q-3 77 -49 111q-47 33 -119 30h-49v-317z" />
<glyph unicode="&#xaf;" horiz-adv-x="1153" d="M336 1280v2v-2v193h479v-193h-479z" />
<glyph unicode="&#xb0;" horiz-adv-x="831" d="M47 1104q0 216 98 323q95 109 271 109q177 0 272 -109q96 -110 96 -323q0 -214 -96 -324q-94 -108 -272 -108q-177 0 -271 108q-98 107 -98 324zM319 1104q0 -140 25 -201q24 -58 72 -55v2v-2q50 -3 71 55q25 61 25 201t-25 201q-21 58 -71 55q-48 3 -72 -55 q-25 -61 -25 -201z" />
<glyph unicode="&#xb1;" d="M129 0h834v-291h-834v2v-2v291zM129 608v287h270v305h281v-305h283v-287h-283v-307h-281v307h-270z" />
<glyph unicode="&#xb2;" horiz-adv-x="831" d="M115 672v2v-2v88q-3 58 12 123q12 63 55 121q41 59 121 100l82 41q53 24 72 53q14 25 14 74q0 46 -25 65q-30 23 -94 23h-176v176h232q180 -3 258 -63q80 -65 77 -177q0 -97 -53 -168t-151 -120l-68 -31q-35 -17 -61 -49q-25 -28 -25 -64v-16h342v-176h-612z" />
<glyph unicode="&#xb3;" horiz-adv-x="831" d="M143 672v2v-2v176h176q58 -3 99 20q38 20 41 68q-3 50 -37 65l-103 15h-108v176h151l52 43q18 21 18 53q3 42 -26 58l-87 14h-159v176h184l186 -18q81 -18 127 -64q47 -47 50 -129q0 -45 -37 -94q-32 -46 -115 -88q85 -22 127 -72q45 -45 45 -127q-3 -132 -106 -201 q-109 -71 -302 -71h-176z" />
<glyph unicode="&#xb4;" horiz-adv-x="1153" d="M479 1280v2v-2v33l193 284h272v-28l-280 -289h-185z" />
<glyph unicode="&#xb5;" horiz-adv-x="1200" d="M115 -385v1505h344v-704q0 -80 14 -105q16 -25 47 -22q34 -3 74 18l121 82l28 29v702h344v-1120h-344v135l-63 -47q-70 -53 -113 -70q-59 -23 -108 -26v-377h-344z" />
<glyph unicode="&#xb6;" horiz-adv-x="1519" d="M35 952q0 194 76 322q73 131 200 196q132 66 289 66h320v-1921h-353v768h-28q-87 0 -174 37q-89 35 -164 104q-77 74 -121 176q-45 105 -45 252zM1051 -385v1921h344v-1921h-344z" />
<glyph unicode="&#xb7;" horiz-adv-x="567" d="M115 557v2v-2v352h344v-352h-344z" />
<glyph unicode="&#xb8;" horiz-adv-x="1153" d="M311 -291h148l71 19q26 17 29 69q-3 55 -33 82q-40 35 -67 49v25h188q45 -26 76 -74q26 -45 29 -94q0 -59 -31 -98q-37 -40 -84 -56l-109 -16h-217v94z" />
<glyph unicode="&#xb9;" horiz-adv-x="831" d="M104 1217v190l347 129h176v-864h-275v2v-2v633l-229 -88h-19z" />
<glyph unicode="&#xba;" horiz-adv-x="864" d="M63 1104q0 204 93 317q87 112 276 115q189 -3 279 -115q92 -112 92 -317t-90 -318q-89 -114 -281 -114t-280 114q-89 112 -89 318zM80 336v176h704v-176h-704zM336 1104q-3 -138 18 -199q22 -60 78 -57v2v-2q60 -3 78 61q21 64 18 195q3 142 -18 201q-18 58 -78 55 q-57 3 -78 -55q-21 -59 -18 -201z" />
<glyph unicode="&#xbb;" horiz-adv-x="1024" d="M63 256v2v-2v256l209 176l-209 176v256h25l391 -319v-228l-391 -317h-25zM547 256v256l205 176l-205 176v256h20l396 -319v-228l-396 -317h-20z" />
<glyph unicode="&#xbc;" horiz-adv-x="1665" d="M104 1217v190l347 129h176v-864h-275v633l-229 -88h-19zM416 0v33l671 1503h160v-35l-672 -1501h-159zM911 133v139q41 57 66 131l49 166l33 166l12 129h256l-20 -116l-41 -148l-54 -154l-65 -137h133v156h256v-156h63v-176h-63v-133h-256v2v-2v133h-369z" />
<glyph unicode="&#xbd;" horiz-adv-x="1665" d="M104 1217v190l347 129h176v-864h-275v633l-229 -88h-19zM416 0v33l671 1503h160v-35l-672 -1501h-159zM963 0v2v-2v88q-3 58 12 123q15 63 55 121q38 55 123 100l82 37q52 27 70 57q18 27 18 74q0 43 -29 66q-28 22 -94 22h-176v176h231q180 -3 258 -63q81 -66 78 -176 q0 -97 -53 -168q-54 -75 -154 -121l-61 -35q-43 -16 -66 -45q-22 -28 -22 -63v-17h344v-176h-616z" />
<glyph unicode="&#xbe;" horiz-adv-x="1665" d="M96 672v176h176q58 -3 99 20q37 21 37 68q0 51 -33 65l-103 15h-112v176h153l54 43q18 21 18 53q0 42 -25 58l-88 14h-157v176h184l182 -18q81 -18 127 -64q44 -44 47 -129q0 -48 -32 -94q-34 -45 -115 -88q84 -21 129 -72q43 -46 43 -127q-3 -132 -109 -201 q-106 -71 -299 -71h-176zM416 0v33l671 1503h160v-35l-672 -1501h-159zM911 133v139q41 57 66 131l49 166l33 166l12 129h256l-20 -116l-41 -148l-54 -154l-65 -137h133v156h256v-156h63v-176h-63v-133h-256v2v-2v133h-369z" />
<glyph unicode="&#xbf;" horiz-adv-x="864" d="M47 383q0 75 21 137q19 55 69 131l127 170l115 148v55h348v-63l-180 -236l-86 -113q-30 -41 -47 -86q-15 -40 -15 -77q-3 -79 43 -113q44 -35 150 -35h203v-301h-336v2v-2q-208 0 -309 98q-103 100 -103 285zM385 1184v352h342v-352h-342z" />
<glyph unicode="&#xc0;" horiz-adv-x="1296" d="M35 0v16q53 330 121 639q63 286 133 519q64 214 127 362h456q71 -152 134 -362q65 -209 137 -519q68 -309 121 -639v-16h-381l-23 160l-26 176h-402l-26 -176l-21 -160h-350zM289 1935v33h270l193 -289v-30h-185zM483 625v2v-2h49h105h102h47l-49 252l-47 215l-49 161 l-51 -159l-53 -217z" />
<glyph unicode="&#xc1;" horiz-adv-x="1296" d="M35 0v16q53 330 121 639q63 286 133 519q64 214 127 362h456q71 -152 134 -362q65 -209 137 -519q68 -309 121 -639v-16h-381l-23 160l-26 176h-402l-26 -176l-21 -160h-350zM483 625v2v-2h49h105h102h47l-49 252l-47 215l-49 161l-51 -159l-53 -217zM553 1649v30 l190 289h273v-33l-281 -286h-182z" />
<glyph unicode="&#xc2;" horiz-adv-x="1296" d="M35 0v16q53 330 121 639q63 286 133 519q64 214 127 362h456q71 -152 134 -362q65 -209 137 -519q68 -309 121 -639v-16h-381l-23 160l-26 176h-402l-26 -176l-21 -160h-350zM231 1649v30l256 289h322l256 -289v-30h-217l-201 190l-196 -190h-220zM483 625v2v-2h49h105 h102h47l-49 252l-47 215l-49 161l-51 -159l-53 -217z" />
<glyph unicode="&#xc3;" horiz-adv-x="1296" d="M35 0v16q53 330 121 639q63 286 133 519q64 214 127 362h456q71 -152 134 -362q65 -209 137 -519q68 -309 121 -639v-16h-381l-23 160l-26 176h-402l-26 -176l-21 -160h-350zM328 1649v190l49 55l67 50l84 24q53 -3 93 -35l79 -59q37 -32 68 -35q66 3 109 43l75 86h19 v-190l-49 -56q-28 -31 -70 -53q-38 -17 -84 -20q-49 3 -88 32q-43 32 -78 64q-46 31 -74 33q-61 -3 -108 -41l-76 -88h-16zM483 625v2v-2h49h105h102h47l-49 252l-47 215l-49 161l-51 -159l-53 -217z" />
<glyph unicode="&#xc4;" horiz-adv-x="1296" d="M35 0v16q53 330 121 639q63 286 133 519q64 214 127 362h456q71 -152 134 -362q65 -209 137 -519q68 -309 121 -639v-16h-381l-23 160l-26 176h-402l-26 -176l-21 -160h-350zM303 1649v256h256v-256h-256zM483 625v2v-2h49h105h102h47l-49 252l-47 215l-49 161l-51 -159 l-53 -217zM735 1649v256h248v-256h-248z" />
<glyph unicode="&#xc6;" horiz-adv-x="1783" d="M35 0v16l57 238l55 201l64 198l80 260l90 258l86 224l61 141h1143v-303h-504v-305h441v-303h-441v-148q-3 -91 33 -133q34 -43 127 -43h377v-301h-496q-171 3 -264 90q-96 90 -117 246h-360l-45 -178l-37 -158h-350zM549 639v2v-2h274v594h-96l-47 -139l-62 -207z" />
<glyph unicode="&#xc7;" horiz-adv-x="1216" d="M80 688v160q0 338 164 520q166 181 499 184l224 -26l172 -53v-433h-316v193l-51 8l-57 4q-115 0 -172 -45q-59 -47 -80 -131q-23 -94 -23 -205v-176q0 -144 31 -235q34 -88 96 -127q64 -37 160 -37h49l121 10l119 18l88 27h16v-291l-82 -26l-127 -31l-135 -12h-49v2v-2 q-342 0 -494 180q-156 181 -153 524zM465 -291h143l72 19q30 18 33 69q-3 57 -35 82q-40 34 -70 49v25h193q44 -27 71 -74q28 -49 31 -94q-3 -60 -33 -98q-36 -39 -82 -56l-108 -16h-215v94z" />
<glyph unicode="&#xc8;" horiz-adv-x="1103" d="M143 397v1139h848v-303h-504v-305h441v-303h-441v-160q-3 -95 31 -129q35 -38 117 -35h389v-301h-512v2v-2q-180 0 -274 104q-95 103 -95 293zM190 1935v33h275l190 -289v-30h-184z" />
<glyph unicode="&#xc9;" horiz-adv-x="1103" d="M143 397v1139h848v-303h-504v-305h441v-303h-441v-160q-3 -95 31 -129q35 -38 117 -35h389v-301h-512v2v-2q-180 0 -274 104q-95 103 -95 293zM457 1649v30l190 289h273v-33l-281 -286h-182z" />
<glyph unicode="&#xca;" horiz-adv-x="1103" d="M135 1649v30l256 289h322l256 -289v-30h-217l-199 190l-201 -190h-217zM143 397v1139h848v-303h-504v-305h441v-303h-441v-160q-3 -95 31 -129q35 -38 117 -35h389v-301h-512v2v-2q-180 0 -274 104q-95 103 -95 293z" />
<glyph unicode="&#xcb;" horiz-adv-x="1103" d="M143 397v1139h848v-303h-504v-305h441v-303h-441v-160q-3 -95 31 -129q35 -38 117 -35h389v-301h-512v2v-2q-180 0 -274 104q-95 103 -95 293zM209 1649v256h256v-256h-256zM639 1649v256h250v-256h-250z" />
<glyph unicode="&#xcc;" horiz-adv-x="624" d="M-47 1935v33h270l193 -289v-30h-185zM143 0v2v-2v1536h344v-1536h-344z" />
<glyph unicode="&#xcd;" horiz-adv-x="624" d="M143 0v2v-2v1536h344v-1536h-344zM215 1649v30l193 289h272v-33l-281 -286h-184z" />
<glyph unicode="&#xce;" horiz-adv-x="624" d="M-104 1649v30l256 289h319l256 -289v-30h-215l-201 190l-196 -190h-219zM143 0v2v-2v1536h344v-1536h-344z" />
<glyph unicode="&#xcf;" horiz-adv-x="624" d="M-33 1649v256h256v-256h-256zM143 0v2v-2v1536h344v-1536h-344zM399 1649v256h248v-256h-248z" />
<glyph unicode="&#xd0;" horiz-adv-x="1415" d="M63 625v303h80v608h484q246 -3 403 -86q156 -82 232 -229q73 -146 73 -340v-193q0 -206 -69 -356q-70 -151 -230 -242q-153 -87 -409 -90h-484v625h-80zM487 301v2v-2h148q179 3 260 115q84 113 84 305v127q0 178 -84 282q-81 100 -260 103h-148v-305h281v-303h-281v-324 z" />
<glyph unicode="&#xd1;" horiz-adv-x="1439" d="M143 0v2v-2v1536h328l481 -872v872h344v-1536h-325l-484 872v-872h-344zM399 1649v190l47 55l70 50q41 21 84 24q49 -3 92 -35l80 -59q40 -32 68 -35q63 3 106 43l78 86h16v-190l-47 -56l-69 -53q-38 -17 -84 -20q-49 3 -88 32l-78 64q-42 30 -74 33q-61 -3 -108 -41 l-76 -88h-17z" />
<glyph unicode="&#xd2;" horiz-adv-x="1423" d="M80 741v68q-3 354 147 547q153 193 488 196q331 -3 481 -196t147 -547v-68q0 -239 -63 -405q-65 -170 -205 -260q-139 -92 -360 -92q-226 0 -365 92q-139 89 -207 260q-63 166 -63 405zM350 1935v33h275l190 -289v-30h-182zM440 741q0 -131 21 -233q18 -100 78 -160 q56 -56 176 -59v2v-2q116 3 172 59q57 57 78 160q18 102 18 233v68q0 130 -18 229q-21 100 -78 154q-59 53 -172 53q-117 0 -176 -53q-60 -57 -78 -154q-21 -99 -21 -229v-68z" />
<glyph unicode="&#xd3;" horiz-adv-x="1423" d="M80 741v68q-3 354 147 547q153 193 488 196q331 -3 481 -196t147 -547v-68q0 -239 -63 -405q-65 -170 -205 -260q-139 -92 -360 -92q-226 0 -365 92q-139 89 -207 260q-63 166 -63 405zM440 741q0 -131 21 -233q18 -100 78 -160q56 -56 176 -59v2v-2q116 3 172 59 q57 57 78 160q18 102 18 233v68q0 130 -18 229q-21 100 -78 154q-59 53 -172 53q-117 0 -176 -53q-60 -57 -78 -154q-21 -99 -21 -229v-68zM614 1649v30l195 289h270v-33l-278 -286h-187z" />
<glyph unicode="&#xd4;" horiz-adv-x="1423" d="M80 741v68q-3 354 147 547q153 193 488 196q331 -3 481 -196t147 -547v-68q0 -239 -63 -405q-65 -170 -205 -260q-139 -92 -360 -92q-226 0 -365 92q-139 89 -207 260q-63 166 -63 405zM297 1649v30l256 289h317l256 -289v-30h-215l-198 190l-201 -190h-215zM440 741 q0 -131 21 -233q18 -100 78 -160q56 -56 176 -59v2v-2q116 3 172 59q57 57 78 160q18 102 18 233v68q0 130 -18 229q-21 100 -78 154q-59 53 -172 53q-117 0 -176 -53q-60 -57 -78 -154q-21 -99 -21 -229v-68z" />
<glyph unicode="&#xd5;" horiz-adv-x="1423" d="M80 741v68q-3 354 147 547q153 193 488 196q331 -3 481 -196t147 -547v-68q0 -239 -63 -405q-65 -170 -205 -260q-139 -92 -360 -92q-226 0 -365 92q-139 89 -207 260q-63 166 -63 405zM391 1649v190l47 55l70 50q40 21 84 24q49 -3 92 -35l80 -59q40 -32 67 -35 q64 3 107 43l78 86h16v-190l-47 -56q-28 -31 -70 -53l-84 -20q-49 3 -88 32l-79 64q-39 30 -72 33q-62 -3 -109 -41q-31 -29 -75 -88h-17zM440 741q0 -131 21 -233q18 -100 78 -160q56 -56 176 -59v2v-2q116 3 172 59q57 57 78 160q18 102 18 233v68q0 130 -18 229 q-21 100 -78 154q-59 53 -172 53q-117 0 -176 -53q-60 -57 -78 -154q-21 -99 -21 -229v-68z" />
<glyph unicode="&#xd7;" d="M129 539l215 213l-215 215l205 200l217 -211l211 211l207 -200l-217 -215l217 -213l-207 -205l-211 215l-217 -215v2v-2z" />
<glyph unicode="&#xd8;" horiz-adv-x="1423" d="M80 0v25l133 182q-68 95 -98 233q-35 134 -35 301v68q-3 354 147 547q153 193 488 196l221 -28q93 -25 172 -82l47 65l21 29h167v-27l-36 -51l-93 -127q67 -93 101 -225q28 -137 28 -297v-68q0 -239 -63 -405q-65 -170 -205 -260q-139 -92 -360 -92l-226 28 q-97 29 -172 86l-69 -98h-168zM440 741l4 -104l13 -98l450 626q-26 40 -76 62l-116 18q-117 0 -176 -53q-60 -57 -78 -154q-21 -99 -21 -229v-68zM516 373q34 -43 80 -64q44 -20 119 -20v2v-2q116 3 172 59q57 57 78 160q18 102 18 233v68l-2 98l-6 88z" />
<glyph unicode="&#xd9;" horiz-adv-x="1423" d="M143 573v963h344v-969q-3 -80 17 -151q15 -64 65 -99q49 -34 146 -34q95 0 141 34q50 37 64 99q19 67 16 151v969h344v-958q-3 -301 -152 -447q-148 -148 -413 -145v2v-2q-291 -3 -430 145q-142 148 -142 442zM350 1935v33h275l190 -289v-30h-182z" />
<glyph unicode="&#xda;" horiz-adv-x="1423" d="M143 573v963h344v-969q-3 -80 17 -151q15 -64 65 -99q49 -34 146 -34q95 0 141 34q50 37 64 99q19 67 16 151v969h344v-958q-3 -301 -152 -447q-148 -148 -413 -145v2v-2q-291 -3 -430 145q-142 148 -142 442zM614 1649v30l195 289h270v-33l-278 -286h-187z" />
<glyph unicode="&#xdb;" horiz-adv-x="1423" d="M143 573v963h344v-969q-3 -80 17 -151q15 -64 65 -99q49 -34 146 -34q95 0 141 34q50 37 64 99q19 67 16 151v969h344v-958q-3 -301 -152 -447q-148 -148 -413 -145v2v-2q-291 -3 -430 145q-142 148 -142 442zM297 1649v30l256 289h317l256 -289v-30h-215l-198 190 l-201 -190h-215z" />
<glyph unicode="&#xdc;" horiz-adv-x="1423" d="M143 573v963h344v-969q-3 -80 17 -151q15 -64 65 -99q49 -34 146 -34q95 0 141 34q50 37 64 99q19 67 16 151v969h344v-958q-3 -301 -152 -447q-148 -148 -413 -145v2v-2q-291 -3 -430 145q-142 148 -142 442zM369 1649v256h256v-256h-256zM801 1649v256h248v-256h-248z " />
<glyph unicode="&#xdd;" horiz-adv-x="1280" d="M35 1520v16h356l256 -635l264 635h336v-16l-444 -947v-573h-344v2v-2v573zM545 1649v30l190 289h273v-33l-281 -286h-182z" />
<glyph unicode="&#xdf;" horiz-adv-x="1439" d="M16 840v280h144v17q3 125 76 213q74 90 206 139q125 44 310 47l241 -35q113 -34 183 -98q68 -68 71 -166q-3 -78 -24 -127q-21 -44 -66 -82l-78 -59q-48 -35 -63 -66q-20 -33 -17 -74q3 -45 39 -65q49 -30 74 -39l55 -20q109 -46 174 -123q65 -80 68 -222 q-3 -181 -121 -278q-119 -98 -325 -98v2v-2l-82 2l-103 12l-98 27v276h16l105 -22l127 -15q64 0 102 21q37 18 37 67q0 39 -35 66l-96 47l-64 20q-54 20 -106 68q-50 44 -78 98q-33 59 -33 133q0 79 37 140q34 60 111 116l74 64q26 29 26 72q-3 54 -47 77q-47 27 -121 27 q-104 0 -166 -45q-62 -48 -65 -158v-1077h-344v840h-144z" />
<glyph unicode="&#xe0;" horiz-adv-x="1159" d="M72 344v213q3 186 73 311q75 125 205 189q123 63 297 63h404v-1120h-344v135l-35 -22l-113 -78q-54 -33 -96 -41l-103 -10q-128 -3 -206 84q-79 85 -82 276zM219 1569v28h273l192 -284v-33h-184zM416 416q0 -72 16 -101q14 -26 55 -26v2v-2l68 18l117 82l35 29v422h-52 l-133 -23q-52 -21 -80 -82q-26 -56 -26 -162v-157z" />
<glyph unicode="&#xe1;" horiz-adv-x="1159" d="M72 344v213q3 186 73 311q75 125 205 189q123 63 297 63h404v-1120h-344v135l-35 -22l-113 -78q-54 -33 -96 -41l-103 -10q-128 -3 -206 84q-79 85 -82 276zM416 416q0 -72 16 -101q14 -26 55 -26v2v-2l68 18l117 82l35 29v422h-52l-133 -23q-52 -21 -80 -82 q-26 -56 -26 -162v-157zM483 1280v33l193 284h272v-28l-280 -289h-185z" />
<glyph unicode="&#xe2;" horiz-adv-x="1159" d="M72 344v213q3 186 73 311q75 125 205 189q123 63 297 63h404v-1120h-344v135l-35 -22l-113 -78q-54 -33 -96 -41l-103 -10q-128 -3 -206 84q-79 85 -82 276zM164 1280v33l256 284h319l256 -284v-33h-215l-200 193l-197 -193h-219zM416 416q0 -72 16 -101q14 -26 55 -26v2 v-2l68 18l117 82l35 29v422h-52l-133 -23q-52 -21 -80 -82q-26 -56 -26 -162v-157z" />
<glyph unicode="&#xe3;" horiz-adv-x="1159" d="M72 344v213q3 186 73 311q75 125 205 189q123 63 297 63h404v-1120h-344v135l-35 -22l-113 -78q-54 -33 -96 -41l-103 -10q-128 -3 -206 84q-79 85 -82 276zM260 1280v193l47 51l72 53q36 20 84 20q47 -3 90 -30l80 -64q38 -27 67 -30q69 3 109 38l78 86h14v-190l-47 -53 l-70 -51q-44 -23 -84 -23q-48 3 -88 33l-77 63q-42 31 -72 31q-70 0 -109 -39l-78 -88h-16zM416 416q0 -72 16 -101q14 -26 55 -26v2v-2l68 18l117 82l35 29v422h-52l-133 -23q-52 -21 -80 -82q-26 -56 -26 -162v-157z" />
<glyph unicode="&#xe4;" horiz-adv-x="1159" d="M72 344v213q3 186 73 311q75 125 205 189q123 63 297 63h404v-1120h-344v135l-35 -22l-113 -78q-54 -33 -96 -41l-103 -10q-128 -3 -206 84q-79 85 -82 276zM236 1280v256h256v-256h-256zM416 416q0 -72 16 -101q14 -26 55 -26v2v-2l68 18l117 82l35 29v422h-52l-133 -23 q-52 -21 -80 -82q-26 -56 -26 -162v-157zM668 1280v256h247v-256h-247z" />
<glyph unicode="&#xe5;" horiz-adv-x="1159" d="M72 344v213q3 186 73 311q75 125 205 189q123 63 297 63h404v-1120h-344v135l-35 -22l-113 -78q-54 -33 -96 -41l-103 -10q-128 -3 -206 84q-79 85 -82 276zM387 1501q3 101 70 162q66 63 172 66q104 -3 170 -66q64 -61 67 -162q-3 -101 -67 -162q-68 -59 -170 -59 q-104 0 -172 59q-67 61 -70 162zM416 416q0 -72 16 -101q14 -26 55 -26v2v-2l68 18l117 82l35 29v422h-52l-133 -23q-52 -21 -80 -82q-26 -56 -26 -162v-157zM522 1501q0 -45 27 -86q23 -36 80 -39q52 3 78 39q24 41 24 86q0 53 -24 90q-25 38 -78 41q-58 -3 -80 -41 q-27 -37 -27 -90z" />
<glyph unicode="&#xe6;" horiz-adv-x="1728" d="M88 344v213q3 186 76 311q71 125 203 189q123 63 297 63h571q191 3 309 -76q112 -75 115 -268q-3 -130 -55 -203q-48 -69 -142 -104q-97 -32 -215 -29h-180v-16q-3 -83 31 -123q34 -37 137 -37l174 17l135 36h19v-264q-79 -31 -185 -51l-178 -18q-151 -3 -262 45 t-162 147h-16l-72 -63l-113 -82q-54 -31 -96 -39l-100 -8q-128 -3 -209 84q-79 85 -82 276zM432 416q0 -70 17 -101q14 -26 55 -26v2v-2q27 -3 67 18q30 16 117 82l35 29v10v12v213q0 39 4 101l21 86h-76q-74 0 -131 -23q-55 -21 -80 -82q-29 -63 -29 -162v-157zM1067 645 h160q52 0 86 27q30 27 30 80q0 61 -24 82q-28 22 -84 22q-91 0 -131 -43q-40 -40 -37 -141v-27z" />
<glyph unicode="&#xe9;" horiz-adv-x="1056" d="M63 440v213q3 164 66 269q63 106 178 159q118 56 268 56q209 0 316 -88q105 -86 108 -273q0 -132 -51 -203q-51 -68 -143 -104q-94 -32 -213 -29h-184v-16q-3 -83 43 -123q40 -37 141 -37l125 8l94 19l86 26h14v-264q-75 -31 -178 -51l-174 -18q-237 -3 -362 104 q-131 107 -134 352zM408 645v2v-2h159q58 0 88 27q33 26 33 80q3 51 -26 77q-24 27 -87 27q-86 0 -126 -43q-41 -41 -41 -141v-27zM471 1280v33l193 284h272v-28l-281 -289h-184z" />
<glyph unicode="&#xeb;" horiz-adv-x="1056" d="M63 440v213q3 164 66 269q63 106 178 159q118 56 268 56q209 0 316 -88q105 -86 108 -273q0 -132 -51 -203q-51 -68 -143 -104q-94 -32 -213 -29h-184v-16q-3 -83 43 -123q40 -37 141 -37l125 8l94 19l86 26h14v-264q-75 -31 -178 -51l-174 -18q-237 -3 -362 104 q-131 107 -134 352zM209 1280v256h256v-256h-256zM408 645v2v-2h159q58 0 88 27q33 26 33 80q3 51 -26 77q-24 27 -87 27q-86 0 -126 -43q-41 -41 -41 -141v-27zM639 1280v256h250v-256h-250z" />
<glyph unicode="&#xec;" horiz-adv-x="616" d="M-51 1569v28h270l193 -284v-33h-185zM27 840v280h469v-1120h-344v2v-2v840h-125z" />
<glyph unicode="&#xed;" horiz-adv-x="616" d="M27 840v280h469v-1120h-344v2v-2v840h-125zM213 1280v33l190 284h273v-28l-281 -289h-182z" />
<glyph unicode="&#xee;" horiz-adv-x="616" d="M-109 1280v33l256 284h322l256 -284v-33h-217l-201 193l-196 -193h-220zM27 840v280h469v-1120h-344v2v-2v840h-125z" />
<glyph unicode="&#xef;" horiz-adv-x="616" d="M-37 1280v256h256v-256h-256zM27 840v280h469v-1120h-344v2v-2v840h-125zM395 1280v256h248v-256h-248z" />
<glyph unicode="&#xf0;" horiz-adv-x="1159" d="M72 344v213q3 186 73 311q75 125 205 189q123 63 297 63h60v133h-256v179h256v104h344v-104h77v-179h-77v-1253h-344v135l-35 -22l-113 -78q-54 -33 -96 -41l-103 -10q-128 -3 -206 84q-79 85 -82 276zM416 416q0 -72 16 -101q14 -26 55 -26v2v-2l68 18l117 82l35 29v422 h-52l-133 -23q-52 -21 -80 -82q-26 -56 -26 -162v-157z" />
<glyph unicode="&#xf1;" horiz-adv-x="1200" d="M115 0v2v-2v1120h344v-139l61 51q81 62 142 82l149 23q75 0 139 -37q60 -34 101 -111q36 -71 36 -188v-801h-344v705q0 73 -16 102q-15 25 -47 22l-45 -6l-60 -30l-88 -68l-28 -23v-702h-344zM283 1280v193l45 51q36 36 69 53q39 20 84 20q49 -3 90 -30l80 -64 q41 -27 72 -30q66 3 104 38l78 86h17v-190l-45 -53q-38 -33 -70 -51q-44 -23 -84 -23q-49 3 -90 33l-78 63q-39 31 -74 31q-67 0 -106 -39q-44 -38 -76 -88h-16z" />
<glyph unicode="&#xf2;" horiz-adv-x="1153" d="M63 557q0 290 132 434q131 146 380 146q262 0 390 -146q125 -143 122 -434q0 -204 -53 -334q-55 -124 -168 -182q-117 -60 -291 -57q-163 -3 -280 57q-115 59 -172 182q-60 132 -60 334zM215 1569v28h272l193 -284v-33h-184zM408 557q0 -97 12 -164t49 -96 q36 -33 106 -33v2v-2q73 0 109 33q38 30 47 96l12 164l-12 168q-9 63 -47 98q-36 33 -109 33q-70 0 -106 -33q-37 -34 -49 -98q-12 -67 -12 -168z" />
<glyph unicode="&#xf3;" horiz-adv-x="1153" d="M63 557q0 290 132 434q131 146 380 146q262 0 390 -146q125 -143 122 -434q0 -204 -53 -334q-55 -124 -168 -182q-117 -60 -291 -57q-163 -3 -280 57q-115 59 -172 182q-60 132 -60 334zM408 557q0 -97 12 -164t49 -96q36 -33 106 -33v2v-2q73 0 109 33q38 30 47 96 l12 164l-12 168q-9 63 -47 98q-36 33 -109 33q-70 0 -106 -33q-37 -34 -49 -98q-12 -67 -12 -168zM479 1280v33l193 284h272v-28l-280 -289h-185z" />
<glyph unicode="&#xf4;" horiz-adv-x="1153" d="M63 557q0 290 132 434q131 146 380 146q262 0 390 -146q125 -143 122 -434q0 -204 -53 -334q-55 -124 -168 -182q-117 -60 -291 -57q-163 -3 -280 57q-115 59 -172 182q-60 132 -60 334zM160 1280v33l256 284h319l256 -284v-33h-215l-201 193l-196 -193h-219zM408 557 q0 -97 12 -164t49 -96q36 -33 106 -33v2v-2q73 0 109 33q38 30 47 96l12 164l-12 168q-9 63 -47 98q-36 33 -109 33q-70 0 -106 -33q-37 -34 -49 -98q-12 -67 -12 -168z" />
<glyph unicode="&#xf5;" horiz-adv-x="1153" d="M63 557q0 290 132 434q131 146 380 146q262 0 390 -146q125 -143 122 -434q0 -204 -53 -334q-55 -124 -168 -182q-117 -60 -291 -57q-163 -3 -280 57q-115 59 -172 182q-60 132 -60 334zM256 1280v193l47 51q33 33 72 53q36 20 84 20q47 -3 90 -30l80 -64q38 -27 67 -30 q69 3 109 38l78 86h14v-190l-47 -53l-70 -51q-44 -23 -84 -23q-47 3 -88 33l-78 63q-42 31 -71 31q-69 0 -111 -39l-76 -88h-16zM408 557q0 -97 12 -164t49 -96q36 -33 106 -33v2v-2q73 0 109 33q38 30 47 96l12 164l-12 168q-9 63 -47 98q-36 33 -109 33q-70 0 -106 -33 q-37 -34 -49 -98q-12 -67 -12 -168z" />
<glyph unicode="&#xf6;" horiz-adv-x="1153" d="M63 557q0 290 132 434q131 146 380 146q262 0 390 -146q125 -143 122 -434q0 -204 -53 -334q-55 -124 -168 -182q-117 -60 -291 -57q-163 -3 -280 57q-115 59 -172 182q-60 132 -60 334zM231 1280v256h256v-256h-256zM408 557q0 -97 12 -164t49 -96q36 -33 106 -33v2v-2 q73 0 109 33q38 30 47 96l12 164l-12 168q-9 63 -47 98q-36 33 -109 33q-70 0 -106 -33q-37 -34 -49 -98q-12 -67 -12 -168zM664 1280v256h247v-256h-247z" />
<glyph unicode="&#xf7;" d="M129 608v287h834v-287h-834zM399 193v2v-2v284h289v-284h-289zM399 1024v289h289v-289h-289z" />
<glyph unicode="&#xf8;" horiz-adv-x="1153" d="M63 0v25l101 127q-47 68 -74 170t-27 235q0 290 132 434q131 146 380 146l168 -19q77 -18 136 -53l41 55h167v-24l-102 -131q55 -74 78 -172q24 -102 24 -236q0 -204 -53 -334q-55 -124 -168 -182q-117 -60 -291 -57l-165 16q-82 16 -138 49l-41 -49h-168zM408 512l2 -43 l276 348l-45 29l-66 10q-70 0 -106 -33q-37 -34 -49 -98q-12 -67 -12 -168v-45zM469 299q19 -19 43 -27l63 -8v2v-2q73 0 109 33q38 30 47 96l12 164v51l-2 41z" />
<glyph unicode="&#xf9;" horiz-adv-x="1200" d="M115 317v803h344v-704q0 -80 14 -105q16 -25 47 -22q34 -3 74 18l121 82l28 29v702h344v-1120h-344v135l-63 -47q-82 -63 -139 -84l-150 -20v2v-2q-78 -3 -139 34q-59 33 -100 111q-37 75 -37 188zM240 1569v28h272l195 -284v-33h-187z" />
<glyph unicode="&#xfa;" horiz-adv-x="1200" d="M115 317v803h344v-704q0 -80 14 -105q16 -25 47 -22q34 -3 74 18l121 82l28 29v702h344v-1120h-344v135l-63 -47q-82 -63 -139 -84l-150 -20v2v-2q-78 -3 -139 34q-59 33 -100 111q-37 75 -37 188zM504 1280v33l192 284h275v-28l-283 -289h-184z" />
<glyph unicode="&#xfb;" horiz-adv-x="1200" d="M115 317v803h344v-704q0 -80 14 -105q16 -25 47 -22q34 -3 74 18l121 82l28 29v702h344v-1120h-344v135l-63 -47q-82 -63 -139 -84l-150 -20v2v-2q-78 -3 -139 34q-59 33 -100 111q-37 75 -37 188zM184 1280v33l256 284h320l256 -284v-33h-213l-203 193l-199 -193h-217z " />
<glyph unicode="&#xfc;" horiz-adv-x="1200" d="M115 317v803h344v-704q0 -80 14 -105q16 -25 47 -22q34 -3 74 18l121 82l28 29v702h344v-1120h-344v135l-63 -47q-82 -63 -139 -84l-150 -20v2v-2q-78 -3 -139 34q-59 33 -100 111q-37 75 -37 188zM256 1280v256h256v-256h-256zM688 1280v256h248v-256h-248z" />
<glyph unicode="&#xfd;" horiz-adv-x="1208" d="M115 432v688h344v-643q0 -59 14 -84q15 -24 47 -24l68 10l84 37l71 37v667h344v-960q-3 -263 -151 -402q-149 -143 -424 -143h-281v281h193l186 20q67 20 103 84q30 62 30 176v19l-55 -35q-67 -42 -129 -68q-67 -28 -143 -31q-150 3 -226 97q-75 93 -75 274zM508 1280v33 l192 284h275v-28l-283 -289h-184z" />
<glyph unicode="&#xfe;" horiz-adv-x="1159" d="M115 -385v1921h344v-555l28 27l115 77q55 33 98 41l103 11q127 3 205 -84q76 -85 79 -277v-219q-3 -182 -73 -307q-75 -125 -203 -189q-128 -61 -299 -61h-53v-385h-344zM459 281v2v-2h45q82 0 135 20q53 24 80 82q24 58 24 162v160q0 71 -16 100q-12 27 -55 24 q-26 3 -66 -18l-119 -86l-28 -23v-421z" />
<glyph unicode="&#xff;" horiz-adv-x="1208" d="M115 432v688h344v-643q0 -59 14 -84q15 -24 47 -24l68 10l84 37l71 37v667h344v-960q-3 -263 -151 -402q-149 -143 -424 -143h-281v281h193l186 20q67 20 103 84q30 62 30 176v19l-55 -35q-67 -42 -129 -68q-67 -28 -143 -31q-150 3 -226 97q-75 93 -75 274zM260 1280 v256h256v-256h-256zM692 1280v256h248v-256h-248z" />
<glyph unicode="&#x152;" horiz-adv-x="1839" d="M80 760v33q0 355 176 546q176 194 528 197h947v-303h-504v-305h438v-303h-438v-324h532v-301h-975q-236 0 -393 92t-233 260q-78 173 -78 408zM451 760q-3 -127 26 -236q26 -101 103 -162q73 -58 204 -61v2v-2h99v932h-99q-132 0 -204 -57q-76 -55 -103 -152 q-29 -109 -26 -231v-33z" />
<glyph unicode="&#x153;" horiz-adv-x="1759" d="M72 557q0 291 131 434q131 146 381 146q119 0 198 -39q89 -40 138 -101q54 62 145 101q85 39 199 39q208 0 315 -88q109 -89 109 -273q0 -130 -52 -203q-51 -68 -143 -104q-94 -32 -213 -29h-184v-16q0 -83 43 -123q43 -37 125 -37l178 17l137 36h12v-264 q-77 -31 -182 -51l-174 -18q-111 0 -188 32q-87 37 -136 88q-54 -51 -137 -86q-78 -34 -190 -34q-166 -3 -283 57q-115 59 -172 182q-57 126 -57 334zM416 557q0 -97 12 -164q12 -66 47 -96q39 -33 109 -33v2v-2q69 0 108 33q35 30 47 96l13 164l-13 168q-12 63 -47 98 q-39 33 -108 33q-70 0 -109 -33q-35 -35 -47 -98q-12 -67 -12 -168zM1096 645h159q53 0 88 27q33 26 33 80q3 51 -26 77q-27 27 -86 27q-87 0 -127 -43q-41 -41 -41 -141v-27z" />
<glyph unicode="&#x178;" horiz-adv-x="1280" d="M35 1520v16h356l256 -635l264 635h336v-16l-444 -947v-573h-344v2v-2v573zM297 1649v256h256v-256h-256zM727 1649v256h250v-256h-250z" />
<glyph unicode="&#x2c6;" horiz-adv-x="1153" d="M160 1280v2v-2v33l256 284h319l256 -284v-33h-215l-201 193l-196 -193h-219z" />
<glyph unicode="&#x2dc;" horiz-adv-x="1153" d="M256 1280v2v-2v193l47 51q33 33 72 53q36 20 84 20q47 -3 90 -30l80 -64q38 -27 67 -30q69 3 109 38l78 86h14v-190l-47 -53l-70 -51q-44 -23 -84 -23q-47 3 -88 33l-78 63q-42 31 -71 31q-69 0 -111 -39l-76 -88h-16z" />
<glyph unicode="&#x2000;" horiz-adv-x="984" />
<glyph unicode="&#x2001;" horiz-adv-x="1968" />
<glyph unicode="&#x2002;" horiz-adv-x="984" />
<glyph unicode="&#x2003;" horiz-adv-x="1968" />
<glyph unicode="&#x2004;" horiz-adv-x="656" />
<glyph unicode="&#x2005;" horiz-adv-x="492" />
<glyph unicode="&#x2006;" horiz-adv-x="328" />
<glyph unicode="&#x2007;" horiz-adv-x="328" />
<glyph unicode="&#x2008;" horiz-adv-x="246" />
<glyph unicode="&#x2009;" horiz-adv-x="393" />
<glyph unicode="&#x200a;" horiz-adv-x="109" />
<glyph unicode="&#x2013;" horiz-adv-x="1024" d="M63 608v2v-2v287h900v-287h-900z" />
<glyph unicode="&#x2014;" horiz-adv-x="2048" d="M63 608v2v-2v287h1924v-287h-1924z" />
<glyph unicode="&#x2018;" horiz-adv-x="544" d="M35 928v2v-2v129l264 479h240l-160 -608h-344z" />
<glyph unicode="&#x2019;" horiz-adv-x="544" d="M8 928v2v-2l160 608h344v-129l-264 -479h-240z" />
<glyph unicode="&#x201a;" horiz-adv-x="567" d="M-33 -254v-2l162 608h342v-131l-256 -477h-248v2z" />
<glyph unicode="&#x201c;" horiz-adv-x="1024" d="M35 928v2v-2v129l264 479h240l-160 -608h-344zM512 928v129l264 479h240l-160 -608h-344z" />
<glyph unicode="&#x201d;" horiz-adv-x="1024" d="M8 928v2v-2l160 608h344v-129l-264 -479h-240zM487 928l160 608h344v-129l-264 -479h-240z" />
<glyph unicode="&#x201e;" horiz-adv-x="1024" d="M8 -254v-2l160 608h344v-131l-264 -477h-240v2zM487 -256l160 608h344v-131l-264 -477h-240z" />
<glyph unicode="&#x2022;" horiz-adv-x="864" d="M80 639q3 134 47 215q50 84 129 127t176 43q99 0 178 -43q79 -45 125 -127q49 -85 49 -215q0 -128 -49 -213q-46 -82 -125 -127q-79 -43 -178 -43v2v-2q-97 0 -176 43t-129 127q-44 81 -47 213z" />
<glyph unicode="&#x2026;" horiz-adv-x="1703" d="M115 0v2v-2v352h344v-352h-344zM680 0v352h344v-352h-344zM1247 0v352h344v-352h-344z" />
<glyph unicode="&#x202f;" horiz-adv-x="393" />
<glyph unicode="&#x2039;" horiz-adv-x="544" d="M63 573v228l396 319h20v-256l-207 -176l207 -176v-256h-20v2v-2z" />
<glyph unicode="&#x203a;" horiz-adv-x="544" d="M63 256v2v-2v256l209 176l-209 176v256h25l391 -319v-228l-391 -317h-25z" />
<glyph unicode="&#x205f;" horiz-adv-x="492" />
<glyph unicode="&#x20ac;" d="M35 520v176h117v144h-117v176h117v8q3 176 73 295q75 116 203 174q127 59 295 59h12l160 -18l113 -33v-293h-17l-112 27l-144 10h-12q-116 0 -164 -57q-47 -56 -47 -164v-8h352v-176h-352v-144h352v-176h-352v-8q0 -120 43 -172q42 -51 133 -51h27l162 12q68 11 114 35 h17v-295q-38 -21 -117 -39l-176 -18h-27v2v-2q-254 -3 -393 127q-140 125 -143 401v8h-117z" />
<glyph unicode="&#x2122;" horiz-adv-x="1759" d="M63 1352v184h625v-184h-201v-647h-223v2v-2v647h-201zM803 705v831h213l203 -328l196 328h217v-831h-223v446l-154 -256h-79l-152 242v-432h-221z" />
<glyph unicode="&#x25fc;" horiz-adv-x="1116" d="M0 0v1116h1116v-1116h-1116z" />
</font>
</defs>
</svg>
